<svg xmlns="http://www.w3.org/2000/svg" width="69" height="69" viewBox="0 0 69 69"><defs><style>.a{fill:#ebebeb;}.b,.e,.f{fill:none;}.b,.e{stroke:#293164;}.b,.d,.e,.f{stroke-linecap:round;}.b,.f{stroke-width:2px;}.c{fill:#293164;}.c,.d,.e{stroke-linejoin:round;}.d{fill:#ff738a;}.d,.f{stroke:#ff738a;}.e{stroke-width:0.8px;}.g,.h{stroke:none;}.h{fill:#293164;}</style></defs><g transform="translate(-4774 1605)"><rect class="a" width="69" height="69" rx="7" transform="translate(4774 -1605)"/><g transform="translate(-1.163)"><line class="b" x1="17.375" transform="translate(4787.06 -1597.5)"/><line class="b" y2="21" transform="translate(4787.06 -1597.5)"/><line class="b" x1="5.56" y2="6" transform="translate(4781.5 -1576.5)"/><line class="b" x1="17.375" transform="translate(4787.06 -1543.5)"/><line class="b" y1="21" transform="translate(4787.06 -1564.5)"/><line class="b" x1="5.56" y1="6" transform="translate(4781.5 -1570.5)"/></g><g transform="translate(1)"><line class="b" x2="17.375" transform="translate(4813.5 -1597.5)"/><line class="b" y2="21" transform="translate(4830.875 -1597.5)"/><line class="b" x2="5.56" y2="6" transform="translate(4830.875 -1576.5)"/><line class="b" x2="17.375" transform="translate(4813.5 -1543.5)"/><line class="b" y1="21" transform="translate(4830.875 -1564.5)"/><line class="b" y1="6" x2="5.56" transform="translate(4830.875 -1570.5)"/></g><g transform="translate(-2.058)"><g class="c" transform="translate(4822.914 -1550.006) rotate(155)"><path class="g" d="M 2.040009260177612 33.30720901489258 C 1.86797034740448 32.97585296630859 1.532969832420349 32.15449523925781 1.149789810180664 30.95045852661133 C 0.6739698052406311 29.45531845092773 0.4800098240375519 28.49071884155273 0.5011498332023621 28.22720909118652 L 2.668164014816284 1.215858578681946 L 4.835330009460449 28.22723960876465 C 4.89674711227417 28.99267959594727 4.130178928375244 32.36741638183594 3.789201498031616 33.16114807128906 L 2.040009260177612 33.30720901489258 Z"/><path class="h" d="M 2.668181180953979 7.46807861328125 L 0.9999661445617676 28.26201057434082 C 0.9957270622253418 28.46644592285156 1.157977104187012 29.32094573974609 1.614109754562378 30.7606086730957 C 1.902272939682007 31.67011260986328 2.167571544647217 32.370361328125 2.345007419586182 32.78001022338867 L 3.432348251342773 32.68921279907227 C 3.790550231933594 31.61794853210449 4.381325244903564 28.82046508789062 4.336929798126221 28.26721954345703 L 2.668181180953979 7.46807861328125 M 2.668159961700439 0 C 2.8858802318573 0 3.10354208946228 0.390350341796875 3.166199922561646 1.171329498291016 L 5.33372974395752 28.18724822998047 C 5.410709857940674 29.14670944213867 4.38300895690918 33.64090347290039 4.052839756011963 33.6408805847168 L 1.821039915084839 33.82723999023438 C 1.490059852600098 33.82723999023438 -0.07423019409179688 29.14667892456055 0.002749919891357422 28.18721961975098 L 2.170129776000977 1.171318054199219 C 2.232767105102539 0.390533447265625 2.450492858886719 0 2.668159961700439 0 Z"/></g><path class="d" d="M4808.117-1574.692s-.152-1.27.629-1.5a9.191,9.191,0,0,1,3.009.35,1.649,1.649,0,0,0-.96-1.768,27.571,27.571,0,0,0-4.779-.825Z" transform="translate(-6.352 -9.011)"/><path class="e" d="M6.305,10.169s-1.253.755-1.93.442A6.4,6.4,0,0,1,1.961,6.574c-.119-2.076.585-1.282-.2-3.873S0,0,0,0,6.316,1.027,7.621,2.934s1.5,6.146-.5,7.012S3.2,7.148,5.767,5.727" transform="translate(4798.203 -1588.018) rotate(-9)"/></g><g transform="translate(2 -1)"><line class="f" x2="17.375" transform="translate(4813.5 -1597.5)"/><line class="f" y2="21" transform="translate(4830.875 -1597.5)"/><line class="f" x2="5.56" y2="6" transform="translate(4830.875 -1576.5)"/><line class="f" x2="17.375" transform="translate(4813.5 -1543.5)"/><line class="f" y1="21" transform="translate(4830.875 -1564.5)"/><line class="f" y1="6" x2="5.56" transform="translate(4830.875 -1570.5)"/></g><g transform="translate(4779.211 -1598.5)"><line class="f" x1="17.375" transform="translate(5.56)"/><line class="f" y2="21" transform="translate(5.56)"/><line class="f" x1="5.56" y2="6" transform="translate(0 21)"/><line class="f" x1="17.375" transform="translate(5.56 54)"/><line class="f" y1="21" transform="translate(5.56 33)"/><line class="f" x1="5.56" y1="6" transform="translate(0 27)"/></g></g></svg>